<?xml version="1.0" standalone="no"?>
<!DOCTYPE svg PUBLIC "-//W3C//DTD SVG 20010904//EN"
 "http://www.w3.org/TR/2001/REC-SVG-20010904/DTD/svg10.dtd">
<svg version="1.0" xmlns="http://www.w3.org/2000/svg"
 width="700.000000pt" height="700.000000pt" viewBox="0 0 700.000000 700.000000"
 preserveAspectRatio="xMidYMid meet">
<metadata>
Created by potrace 1.14, written by Peter Selinger 2001-2017
</metadata>
<g transform="translate(0.000000,700.000000) scale(0.100000,-0.100000)"
fill="#000000" stroke="none">
<path d="M0 3500 l0 -3500 3500 0 3500 0 0 3500 0 3500 -3500 0 -3500 0 0
-3500z m6660 0 l0 -3160 -3160 0 -3160 0 0 3160 0 3160 3160 0 3160 0 0 -3160z"/>
<path d="M2046 6100 c-608 -70 -1112 -565 -1195 -1173 -7 -49 -11 -317 -11
-705 l0 -627 24 -51 c27 -58 80 -114 134 -141 33 -16 71 -18 375 -21 l337 -3
0 596 0 595 -270 0 -270 0 0 108 c0 348 93 584 316 805 124 123 278 211 453
259 64 18 105 22 261 22 164 1 195 -2 270 -22 167 -46 313 -128 439 -247 228
-216 321 -440 321 -772 l0 -153 -265 0 -265 0 0 -595 0 -595 328 0 c322 0 328
1 377 24 29 13 69 44 92 70 77 87 75 62 70 798 -3 629 -4 657 -25 750 -96 425
-375 776 -762 957 -175 82 -330 118 -535 126 -66 2 -155 0 -199 -5z"/>
<path d="M4295 4260 c-82 -8 -235 -37 -310 -58 l-30 -8 -3 -148 c-2 -139 -1
-148 15 -141 39 15 184 54 244 66 98 20 395 17 499 -4 277 -58 486 -167 687
-361 176 -168 290 -342 357 -545 53 -159 69 -269 70 -456 0 -242 -39 -414
-139 -614 -167 -334 -488 -606 -830 -706 -154 -45 -269 -58 -460 -52 -236 8
-366 39 -563 134 -260 126 -496 362 -631 631 -46 92 -97 252 -116 366 -19 113
-22 343 -6 451 19 127 32 116 -126 113 l-137 -3 -10 -45 c-5 -25 -10 -142 -10
-260 -1 -186 2 -230 22 -327 67 -333 232 -635 473 -869 150 -145 266 -225 454
-315 185 -89 341 -130 563 -151 754 -69 1468 403 1713 1133 52 155 71 269 76
456 8 268 -28 477 -118 688 -188 439 -507 747 -955 926 -205 81 -499 121 -729
99z"/>
<path d="M4280 3032 l0 -497 350 -350 350 -350 97 98 98 97 -308 308 -307 307
0 443 0 442 -140 0 -140 0 0 -498z"/>
</g>
</svg>
